<?xml version="1.0" encoding="UTF-8"?>
<!DOCTYPE svg PUBLIC "-//W3C//DTD SVG 1.1//EN" "http://www.w3.org/Graphics/SVG/1.1/DTD/svg11.dtd">
<!-- Creator: CorelDRAW X7 -->
<svg xmlns="http://www.w3.org/2000/svg" xml:space="preserve" width="210mm" height="297mm" version="1.1" style="shape-rendering:geometricPrecision; text-rendering:geometricPrecision; image-rendering:optimizeQuality; fill-rule:evenodd; clip-rule:evenodd"
viewBox="0 0 21000 29700"
 xmlns:xlink="http://www.w3.org/1999/xlink">
 <defs>
  <style type="text/css">
   <![CDATA[
    .fil3 {fill:#E62129}
    .fil0 {fill:#1D1819}
    .fil2 {fill:#FEFEFE;fill-rule:nonzero}
    .fil1 {fill:#1D1819;fill-rule:nonzero}
   ]]>
  </style>
 </defs>
 <g id="Layer_x0020_1">
  <metadata id="CorelCorpID_0Corel-Layer"/>
  <g id="_1702498066432">
   <polygon class="fil0" points="15704,10012 16273,10012 16288,10012 17456,10012 17456,11330 17456,11777 17456,15286 15704,15286 15704,13079 15704,13078 11559,17213 15704,21348 15704,21228 15704,18965 17456,18965 17456,22474 17456,23096 17456,24239 16097,24239 15704,24239 15206,24239 12133,24239 12133,22474 14328,22474 10306,18463 6285,22474 8480,22474 8480,24239 6229,24239 4909,24239 4516,24239 3156,24239 3156,23096 3156,22474 3156,21228 3156,18965 4909,18965 4909,21348 9054,17213 4909,13078 4909,15286 3156,15286 3156,13079 3156,11777 3156,11330 3156,10012 4325,10012 4340,10012 4909,10012 8480,10012 8480,11777 6229,11777 6109,11777 10246,15904 10306,15964 10367,15904 14504,11777 12133,11777 12133,10012 "/>
   <path class="fil1" d="M17652 5507l0 -375 -133 0 0 -77 358 0 0 77 -133 0 0 375 -92 0zm283 0l0 -452 137 0 81 308 79 -308 138 0 0 452 -85 0 0 -356 -89 356 -88 0 -89 -356 0 356 -84 0z"/>
   <path class="fil2" d="M8006 6563l-388 0 -94 805c-22,186 -208,361 -398,361 -137,0 -204,-91 -189,-221l111 -945 -390 0 -102 875c-43,371 225,674 596,674l0 0c371,0 709,-303 753,-674l101 -875zm-2739 710l0 0 0 3c7,147 29,247 68,299 63,85 179,127 348,127 141,0 243,-29 306,-87 62,-58 93,-128 93,-211 0,-71 -26,-131 -77,-180 -37,-37 -136,-95 -298,-176 -162,-81 -281,-149 -355,-203 -75,-54 -134,-125 -177,-212 -43,-86 -65,-188 -65,-303 -1,-204 63,-372 190,-506 126,-134 310,-200 552,-200 245,0 435,66 570,198 67,66 119,143 156,230l-344 321 0 0c-11,-115 -48,-203 -109,-265 -62,-61 -154,-91 -274,-91 -119,0 -204,24 -254,72 -51,48 -76,109 -76,182 1,70 24,126 70,171 47,46 150,109 310,189 240,120 393,217 459,291 98,110 147,250 148,423 0,212 -72,394 -218,544 -145,151 -348,226 -608,226 -179,0 -335,-34 -467,-104 -132,-69 -225,-165 -280,-288 -13,-31 -25,-63 -35,-95l-3 -11 370 -344zm2880 -710l388 0 -20 154c78,-69 152,-118 222,-148 70,-30 147,-44 230,-44 159,0 291,55 395,164 104,110 164,274 179,491 19,273 -48,505 -203,694 -132,161 -296,241 -492,241 -201,0 -359,-80 -474,-242l-127 950 -408 0 310 -2260zm306 869c8,119 43,212 106,278 63,66 133,99 212,99 68,0 132,-25 192,-74 60,-50 107,-131 140,-246 34,-114 47,-221 41,-319 -8,-114 -42,-201 -101,-262 -59,-61 -130,-91 -214,-91 -79,0 -149,27 -210,83 -60,56 -105,139 -133,247 -28,108 -39,203 -33,285zm1266 -869l384 0 -38 285c126,-216 271,-323 436,-323 58,0 122,14 191,44l-134 335c-38,-13 -79,-20 -120,-20 -71,0 -141,26 -210,80 -69,54 -121,125 -156,214 -35,89 -65,231 -92,424l-65 475 -408 0 212 -1514zm2173 884l-1028 0c1,16 1,29 2,37 7,102 42,184 104,246 62,62 135,94 218,94 138,0 240,-70 307,-211l369 62c-61,147 -149,256 -264,330 -114,73 -245,110 -394,110 -204,0 -374,-64 -511,-193 -137,-130 -212,-300 -227,-513 -14,-208 30,-393 134,-555 141,-220 358,-329 649,-329 185,0 337,57 454,172 117,115 183,276 197,483 7,99 4,188 -10,267zm-362 -248c0,-18 -1,-32 -1,-42 -8,-113 -39,-198 -94,-255 -54,-57 -123,-85 -209,-85 -84,0 -158,32 -220,96 -63,65 -102,160 -117,286l641 0zm551 -636l387 0 -22 181c140,-146 293,-219 458,-219 115,0 204,24 269,71 66,48 110,113 133,197 47,-76 118,-140 212,-191 95,-51 195,-77 300,-77 121,0 218,33 290,99 72,65 112,152 120,260 3,52 -5,142 -25,270l-133 923 -409 0 132 -923c17,-115 25,-182 25,-197 -3,-44 -18,-78 -45,-103 -27,-25 -67,-37 -118,-37 -102,0 -191,54 -264,162 -53,77 -94,215 -121,412l-96 686 -409 0 128 -917c14,-106 20,-175 18,-206 -3,-40 -18,-73 -47,-99 -29,-26 -67,-38 -115,-38 -45,0 -90,13 -135,40 -46,27 -85,63 -118,110 -32,47 -59,107 -80,181 -9,34 -23,112 -42,233l-96 696 -409 0 212 -1514zm3621 884l-1028 0c1,16 1,29 1,37 8,102 42,184 105,246 62,62 135,94 218,94 137,0 240,-70 307,-211l369 62c-62,147 -149,256 -264,330 -114,73 -246,110 -394,110 -204,0 -375,-64 -511,-193 -137,-130 -213,-300 -227,-513 -15,-208 30,-393 134,-555 141,-220 358,-329 649,-329 185,0 336,57 454,172 117,115 183,276 197,483 7,99 4,188 -10,267zm-362 -248c0,-18 -1,-32 -1,-42 -8,-113 -40,-198 -94,-255 -54,-57 -124,-85 -209,-85 -84,0 -158,32 -221,96 -62,65 -101,160 -116,286l641 0z"/>
   <path class="fil1" d="M2683 20578c0,-12 3,-22 10,-30 7,-9 16,-15 28,-18 11,-4 23,-6 34,-6 19,0 39,3 60,8 21,5 40,12 57,21 17,9 32,19 44,30 7,7 13,15 18,25 5,10 8,20 8,31 0,9 -3,18 -9,26 -6,8 -15,14 -26,19 -11,4 -23,6 -36,6 -28,0 -56,-5 -84,-15 -24,-8 -44,-19 -61,-31 -17,-13 -29,-24 -34,-34 -6,-11 -9,-21 -9,-32zm12 -1c0,4 1,7 2,10 2,2 5,5 9,8 4,3 13,7 27,12 26,9 57,18 93,29 29,8 47,13 55,14 11,3 21,4 29,4 6,0 11,-2 15,-5 3,-3 5,-7 5,-12 0,-5 -2,-9 -4,-12 -6,-7 -15,-12 -28,-17 -31,-10 -73,-22 -127,-38 -24,-6 -42,-10 -56,-10 -6,0 -11,2 -14,5 -4,3 -6,7 -6,12zm112 -130c-11,7 -21,13 -30,17 -10,4 -19,6 -29,6 -18,0 -34,-7 -46,-19 -13,-13 -19,-29 -19,-50 0,-19 5,-34 16,-45 10,-11 23,-16 37,-16 10,0 19,2 27,6 8,5 15,12 21,20 4,6 8,15 12,26 19,-14 32,-23 40,-26 7,-4 16,-5 26,-5 22,0 41,7 56,23 16,15 24,34 24,58 0,21 -6,38 -17,50 -12,12 -26,18 -43,18 -12,0 -22,-3 -32,-8 -10,-5 -19,-13 -27,-24 -5,-7 -11,-18 -16,-31zm-19 -47c-5,-7 -10,-11 -15,-13 -12,-5 -27,-7 -46,-7 -12,0 -21,2 -26,6 -5,3 -7,8 -7,13 0,6 2,11 7,15 8,6 20,9 34,9 9,0 17,-2 25,-5 7,-3 17,-9 28,-18zm27 40c5,6 10,11 14,13 6,4 16,8 28,11 12,4 25,5 39,5 12,0 20,-2 25,-6 6,-5 9,-11 9,-18 0,-9 -4,-17 -12,-23 -12,-9 -25,-13 -41,-13 -10,0 -19,2 -28,6 -9,4 -20,12 -34,25zm-132 -272l208 62c11,3 18,4 21,4 3,0 6,-1 9,-3 4,-2 6,-5 7,-7 0,-3 1,-11 2,-24l6 2 0 125 -6 -2c0,-12 -1,-21 -3,-26 -2,-5 -5,-9 -9,-12 -4,-3 -13,-6 -27,-10l-123 -37c-19,-6 -29,-8 -30,-9 -3,0 -6,-1 -9,-1 -6,0 -10,2 -13,5 -4,4 -5,8 -5,15 0,3 0,9 1,18l-7 1 -22 -93 0 -8zm5 -114l0 -94 43 12 0 87 22 11c3,-18 8,-32 14,-44 7,-11 16,-20 29,-28 13,-7 26,-10 41,-10 17,0 34,5 51,14 16,10 29,23 39,40 10,16 15,34 15,53 0,14 -3,24 -8,30 -5,7 -11,10 -17,10 -6,0 -10,-2 -14,-6 -4,-4 -6,-8 -6,-14 0,-4 1,-8 2,-11 1,-2 6,-9 14,-19 6,-7 8,-13 8,-20 0,-10 -4,-17 -12,-24 -10,-8 -24,-13 -40,-13 -14,0 -28,4 -40,11 -13,7 -22,17 -29,29 -5,9 -8,21 -8,36l-104 -50zm0 -188l0 -94 43 13 0 87 22 11c3,-18 8,-33 14,-44 7,-12 16,-21 29,-28 13,-7 26,-11 41,-11 17,0 34,5 51,15 16,9 29,22 39,39 10,17 15,35 15,54 0,13 -3,23 -8,30 -5,6 -11,9 -17,9 -6,0 -10,-2 -14,-5 -4,-4 -6,-9 -6,-14 0,-4 1,-8 2,-12 1,-2 6,-8 14,-19 6,-6 8,-13 8,-20 0,-9 -4,-17 -12,-23 -10,-9 -24,-13 -40,-13 -14,0 -28,3 -40,10 -13,7 -22,17 -29,29 -5,10 -8,22 -8,37l-104 -51zm0 -170l0 -130 8 0 246 146 -9 15 -201 -120 0 60c0,16 2,27 5,35 3,7 9,14 17,20l0 7 -66 -33zm147 -124l0 -106 38 11 0 107 -38 -12zm-28 -188c-11,8 -21,14 -30,18 -10,3 -19,5 -29,5 -18,0 -34,-6 -46,-18 -13,-13 -19,-29 -19,-50 0,-19 5,-34 16,-45 10,-11 23,-17 37,-17 10,0 19,3 27,7 8,5 15,11 21,20 4,6 8,14 12,26 19,-14 32,-23 40,-27 7,-3 16,-5 26,-5 22,0 41,8 56,23 16,16 24,35 24,59 0,21 -6,37 -17,49 -12,13 -26,19 -43,19 -12,0 -22,-3 -32,-8 -10,-6 -19,-14 -27,-24 -5,-7 -11,-18 -16,-32zm-19 -46c-5,-7 -10,-11 -15,-13 -12,-5 -27,-7 -46,-7 -12,0 -21,2 -26,5 -5,4 -7,9 -7,14 0,6 2,11 7,15 8,6 20,9 34,9 9,0 17,-2 25,-5 7,-3 17,-10 28,-18zm27 40c5,6 10,10 14,13 6,4 16,8 28,11 12,3 25,5 39,5 12,0 20,-2 25,-7 6,-4 9,-10 9,-17 0,-9 -4,-17 -12,-23 -12,-9 -25,-14 -41,-14 -10,0 -19,2 -28,7 -9,4 -20,12 -34,25zm127 -120l-8 0c-5,-19 -15,-36 -30,-52 -15,-16 -37,-31 -65,-44 4,12 6,22 6,30 0,14 -6,25 -16,35 -10,9 -25,14 -44,14 -24,0 -47,-7 -67,-21 -25,-17 -37,-39 -37,-67 0,-19 7,-35 20,-46 13,-12 31,-18 55,-18 26,0 51,6 75,17 24,12 44,26 61,44 16,17 29,36 38,56 6,16 10,33 12,52zm-117 -101c-22,-9 -44,-16 -67,-21 -15,-4 -28,-6 -38,-6 -9,0 -16,2 -21,6 -4,4 -7,9 -7,15 0,5 2,9 5,13 6,6 17,12 34,18 27,8 49,12 67,12 9,0 16,-2 23,-7 4,-4 7,-9 7,-14 0,-5 -1,-10 -3,-16z"/>
   <path class="fil1" d="M3168 24800c-24,0 -43,-5 -58,-14 -14,-10 -26,-24 -33,-40 -7,-17 -11,-34 -11,-50 0,-32 9,-64 28,-97 18,-33 43,-59 75,-79 31,-20 62,-30 92,-30 18,0 35,5 51,14 17,9 29,21 38,38 9,16 13,32 13,49 0,36 -11,73 -35,110 -23,37 -50,64 -79,81 -22,12 -49,18 -81,18zm87 -292c-12,0 -22,2 -30,6 -8,4 -16,11 -25,21 -9,10 -18,24 -27,42 -9,18 -17,43 -25,74 -8,31 -12,57 -12,78 0,18 4,31 11,40 8,9 18,14 30,14 16,0 30,-5 41,-16 22,-21 41,-52 55,-93 14,-41 21,-77 21,-109 0,-20 -4,-35 -12,-44 -7,-9 -16,-13 -27,-13zm233 115l-29 101c-14,47 -26,82 -38,103 -11,21 -24,37 -39,48 -15,10 -33,15 -52,15 -13,0 -22,-2 -28,-7 -5,-5 -8,-10 -8,-17 0,-6 2,-11 7,-15 5,-5 11,-7 19,-7 6,0 12,2 15,5 4,3 5,8 5,13 0,4 -1,8 -3,10 -2,3 -3,4 -3,5l1 1c1,1 2,1 3,1 4,0 8,-1 11,-4 7,-7 13,-15 17,-25 2,-6 7,-24 14,-53l50 -174 -28 0 7 -26c11,0 19,-1 23,-4 5,-3 10,-9 16,-20 16,-29 32,-51 50,-63 17,-13 37,-20 58,-20 14,0 24,3 30,8 6,6 10,13 10,21 0,8 -2,14 -7,18 -4,5 -9,7 -15,7 -6,0 -11,-2 -15,-5 -4,-4 -5,-8 -5,-14 0,-3 1,-7 3,-11 3,-4 4,-7 4,-8 0,-2 -1,-3 -2,-4 -1,-1 -2,-2 -4,-2 -8,0 -17,6 -26,16 -14,17 -25,44 -34,81l28 0 -7 26 -28 0zm140 0l-29 101c-13,47 -26,82 -37,103 -11,21 -24,37 -40,48 -15,10 -32,15 -52,15 -12,0 -21,-2 -27,-7 -6,-5 -8,-10 -8,-17 0,-6 2,-11 7,-15 5,-5 11,-7 19,-7 6,0 11,2 15,5 3,3 5,8 5,13 0,4 -1,8 -3,10 -2,3 -3,4 -3,5l1 1c0,1 1,1 3,1 4,0 8,-1 11,-4 7,-7 13,-15 16,-25 3,-6 8,-24 15,-53l50 -174 -28 0 7 -26c11,0 18,-1 23,-4 5,-3 10,-9 16,-20 16,-29 32,-51 50,-63 17,-13 37,-20 58,-20 14,0 24,3 30,8 6,6 9,13 9,21 0,8 -2,14 -6,18 -4,5 -9,7 -16,7 -5,0 -10,-2 -14,-5 -4,-4 -6,-8 -6,-14 0,-3 2,-7 4,-11 2,-4 4,-7 4,-8 0,-2 -1,-3 -2,-4 -1,-1 -3,-2 -4,-2 -9,0 -17,6 -26,16 -14,17 -26,44 -34,81l28 0 -7 26 -29 0zm44 50l127 0 -13 45 -128 0 14 -45zm190 127l20 -253c1,-8 1,-14 1,-19 0,-8 -2,-13 -5,-17 -4,-4 -10,-6 -19,-6l3 -8 120 0 -2 8 -6 0c-8,0 -14,2 -19,7 -5,6 -8,15 -9,30l-12 151 90 -123 2 -28c0,-6 1,-11 1,-14 0,-7 -2,-13 -6,-17 -4,-4 -10,-6 -19,-6l2 -8 120 0 -2 8c-11,0 -19,2 -24,7 -5,6 -8,15 -9,30l-11 151 86 -119c14,-21 23,-34 27,-42 2,-5 4,-9 4,-13 0,-3 -2,-6 -5,-9 -4,-2 -10,-4 -19,-5l2 -8 79 0 -2 8c-7,1 -13,3 -18,7 -6,5 -15,15 -25,30l-188 258 -13 0 15 -200 -146 200 -13 0zm488 -310l-57 197c20,-29 34,-48 43,-58 14,-15 26,-25 36,-30 9,-5 19,-8 28,-8 7,0 14,3 19,9 6,6 8,13 8,23 0,8 -1,18 -5,29l-31 93c-2,8 -4,14 -4,16 0,2 1,3 2,4 1,1 2,1 3,1 2,0 4,0 6,-2 4,-3 9,-9 14,-17 2,-2 4,-5 7,-9l8 5c-12,20 -24,34 -36,42 -11,7 -22,11 -32,11 -9,0 -16,-2 -21,-7 -5,-5 -8,-10 -8,-17 0,-7 2,-16 6,-28l30 -93c1,-6 2,-11 2,-14 0,-1 0,-3 -1,-4 -2,-1 -3,-2 -5,-2 -5,0 -13,5 -22,13 -20,18 -39,46 -59,85l-19 65 -55 0 73 -247c3,-10 4,-18 4,-23 0,-3 -1,-6 -5,-8 -4,-3 -11,-4 -20,-4l2 -9 75 -13 14 0zm202 0c9,0 16,3 23,10 6,6 9,14 9,23 0,8 -3,16 -9,22 -7,7 -14,10 -23,10 -9,0 -17,-3 -23,-10 -6,-6 -9,-14 -9,-22 0,-9 3,-17 9,-23 6,-7 14,-10 23,-10zm18 101l-49 154c-2,8 -4,14 -4,17 0,2 1,3 2,5 1,1 3,2 4,2 3,0 5,-1 8,-4 6,-5 14,-15 23,-30l7 4c-22,40 -45,60 -70,60 -10,0 -18,-2 -23,-8 -6,-5 -9,-11 -9,-20 0,-5 2,-12 4,-20l34 -104c3,-10 5,-18 5,-23 0,-3 -2,-6 -5,-9 -3,-2 -7,-3 -12,-3 -2,0 -5,0 -8,0l2 -9 77 -12 14 0zm137 -53l-18 59 24 0 -7 25 -25 0 -40 129c-2,8 -3,13 -3,18 0,1 0,2 2,3 1,1 2,2 4,2 2,0 5,-1 8,-4 6,-5 14,-13 23,-26l8 5c-10,17 -21,30 -34,38 -12,8 -24,12 -35,12 -10,0 -18,-2 -23,-7 -6,-5 -9,-11 -9,-19 0,-9 2,-19 6,-33l37 -118 -28 0 5 -16c17,-7 33,-15 46,-24 13,-9 29,-24 47,-44l12 0zm61 173c-1,10 -2,18 -2,24 0,11 4,19 10,26 6,6 15,10 25,10 11,0 21,-2 31,-7 10,-4 22,-12 36,-23l7 6c-17,19 -33,32 -49,40 -16,8 -34,12 -53,12 -24,0 -41,-5 -50,-17 -10,-12 -14,-25 -14,-41 0,-23 7,-47 21,-71 13,-24 32,-43 56,-57 24,-15 48,-22 72,-22 13,0 22,3 28,9 6,5 10,13 10,22 0,10 -3,21 -10,31 -8,13 -19,24 -32,33 -12,8 -27,14 -43,19 -10,3 -25,5 -43,6zm2 -11c13,-2 23,-4 30,-8 7,-3 14,-8 21,-15 7,-7 13,-17 18,-27 5,-11 7,-22 7,-31 0,-4 -1,-7 -3,-10 -2,-2 -5,-3 -9,-3 -7,0 -15,5 -23,14 -17,18 -30,45 -41,80z"/>
   <path class="fil1" d="M5094 24577l0 -182 56 0 32 124 33 -124 55 0 0 182 -34 0 0 -143 -36 143 -36 0 -36 -143 0 143 -34 0zm-114 0l0 -151 -54 0 0 -31 145 0 0 31 -54 0 0 151 -37 0z"/>
   <path class="fil1" d="M3235 4810l5 8c-19,10 -31,19 -38,26 -4,6 -6,11 -6,15 0,5 4,11 10,17 7,6 12,12 14,17 2,3 3,7 3,11 0,9 -3,17 -10,23 -6,7 -14,10 -24,10 -9,0 -17,-4 -23,-11 -6,-6 -10,-15 -10,-26 0,-16 6,-31 16,-44 13,-18 34,-33 63,-46zm89 0l4 9c-19,10 -31,18 -37,25 -4,5 -6,11 -6,16 0,5 3,10 11,17 10,9 15,18 15,27 0,9 -3,17 -10,24 -6,6 -14,10 -23,10 -9,0 -17,-4 -23,-11 -7,-8 -11,-17 -11,-27 0,-17 6,-32 17,-46 15,-18 35,-33 63,-44zm61 6l218 0 -20 73 -7 0c0,-4 0,-7 0,-10 0,-14 -4,-25 -12,-33 -9,-7 -23,-12 -43,-13l-59 205c-3,11 -5,20 -5,25 0,5 2,9 6,12 4,3 13,5 26,5l-2 7 -134 0 2 -7c14,0 24,-2 30,-7 6,-6 12,-17 17,-35l59 -205c-21,1 -38,5 -52,14 -13,8 -26,22 -37,42l-8 0 21 -73zm353 15l-30 105 9 0c25,0 42,-3 54,-9 11,-7 20,-18 28,-34l7 0 -30 105 -7 0c1,-7 1,-13 1,-17 0,-7 -2,-13 -6,-18 -4,-5 -10,-8 -17,-10 -4,-1 -14,-2 -28,-2l-15 0 -26 91c-2,8 -3,14 -3,18 0,3 1,5 4,7 4,3 12,4 24,4 23,0 44,-5 64,-14 20,-10 38,-25 54,-44l9 0 -29 74 -229 0 3 -7c13,0 22,-2 28,-7 6,-6 11,-17 16,-35l50 -175c3,-9 4,-17 4,-23 0,-5 -2,-9 -5,-11 -4,-3 -12,-5 -26,-6l2 -7 218 0 -17 68 -7 0c-1,-13 -3,-23 -6,-28 -6,-9 -14,-15 -23,-19 -9,-4 -24,-6 -45,-6l-26 0zm288 -15l20 187 129 -187 95 0 -2 7c-13,0 -23,3 -30,8 -7,6 -13,17 -18,34l-49 174c-4,11 -5,19 -5,24 0,5 2,9 6,12 4,3 12,5 23,5l-1 7 -136 0 3 -7c14,0 25,-2 32,-8 7,-6 13,-17 18,-33l50 -177 -155 225 -8 0 -24 -229 -52 181c-2,7 -3,13 -3,18 0,7 2,12 6,16 5,5 13,7 24,7l-2 7 -90 0 2 -7c11,0 19,-2 25,-7 10,-7 17,-19 22,-34l58 -201c-5,-6 -10,-10 -15,-12 -4,-2 -12,-3 -22,-3l2 -7 97 0zm339 147l-21 75c-3,11 -5,19 -5,23 0,6 2,11 6,14 4,3 13,5 27,5l-2 7 -133 0 3 -7c11,0 19,-1 23,-3 5,-2 9,-5 12,-10 2,-3 6,-13 10,-29l49 -172c4,-11 6,-20 6,-25 0,-5 -3,-9 -7,-12 -4,-4 -12,-6 -24,-6l2 -7 108 0c30,0 51,4 64,11 20,12 30,30 30,53 0,23 -10,43 -30,60 -20,18 -47,26 -81,26 -10,0 -23,-1 -37,-3zm4 -16c9,1 16,2 22,2 18,0 32,-8 42,-25 11,-17 16,-35 16,-53 0,-12 -3,-22 -10,-29 -7,-7 -16,-10 -28,-10 -2,0 -6,0 -9,0l-33 115zm298 -116l-29 105 9 0c24,0 42,-3 53,-9 11,-7 21,-18 29,-34l7 0 -31 105 -7 0c1,-7 2,-13 2,-17 0,-7 -2,-13 -6,-18 -5,-5 -10,-8 -17,-10 -5,-1 -14,-2 -28,-2l-16 0 -25 91c-3,8 -4,14 -4,18 0,3 2,5 4,7 5,3 13,4 25,4 22,0 44,-5 64,-14 20,-10 38,-25 54,-44l8 0 -28 74 -229 0 2 -7c13,0 23,-2 29,-7 5,-6 11,-17 16,-35l50 -175c2,-9 4,-17 4,-23 0,-5 -2,-9 -6,-11 -3,-3 -12,-5 -25,-6l1 -7 219 0 -18 68 -7 0c0,-13 -2,-23 -6,-28 -6,-9 -13,-15 -22,-19 -10,-4 -25,-6 -46,-6l-26 0zm251 124l-23 82c-4,12 -6,20 -6,26 0,5 2,9 6,12 5,3 13,5 26,5l-3 7 -130 0 3 -7c13,0 22,-2 28,-7 6,-5 12,-17 17,-35l50 -174c3,-10 4,-17 4,-23 0,-5 -2,-10 -5,-12 -4,-3 -12,-5 -24,-6l2 -7 112 0c32,0 55,6 68,17 13,11 19,25 19,43 0,18 -7,35 -23,50 -9,9 -26,17 -51,24l24 83c7,22 12,35 17,40 5,4 13,7 24,7l0 7 -84 0 -38 -132 -6 0c-2,0 -4,0 -7,0zm3 -12c5,0 9,0 12,0 19,0 35,-6 47,-20 12,-13 19,-31 19,-52 0,-13 -4,-23 -10,-29 -7,-7 -16,-10 -26,-10 -3,0 -6,0 -10,0l-32 111zm333 57l-84 0 -17 21 -19 23c-4,5 -7,9 -8,13 -2,3 -2,6 -2,10 0,3 1,6 5,9 3,2 9,4 17,4l0 7 -81 0 2 -7c7,-1 13,-3 19,-7 7,-6 18,-17 32,-34l192 -229 9 0 -9 222c0,11 0,18 0,21 0,9 2,16 5,20 4,4 10,7 18,7l-2 7 -117 0 2 -7c12,-1 19,-2 20,-2 4,-2 8,-6 11,-12 3,-6 5,-17 5,-31l2 -35zm0 -17l5 -88 -75 88 70 0zm164 -167l218 0 -20 73 -7 0c0,-4 0,-7 0,-10 0,-14 -4,-25 -12,-33 -9,-7 -23,-12 -43,-13l-59 205c-3,11 -5,20 -5,25 0,5 2,9 6,12 4,3 13,5 25,5l-1 7 -134 0 2 -7c14,0 24,-2 30,-7 6,-6 12,-17 17,-35l59 -205c-21,1 -38,5 -52,14 -13,8 -26,22 -37,42l-8 0 21 -73zm436 0l92 0 -2 7c-10,1 -18,3 -24,8 -9,6 -16,18 -21,33l-36 125c-11,39 -26,66 -45,81 -19,16 -43,23 -73,23 -16,0 -31,-2 -44,-7 -12,-5 -22,-10 -28,-16 -5,-6 -10,-13 -13,-22 -3,-9 -5,-17 -5,-22 0,-10 3,-24 8,-42l34 -120c3,-10 5,-18 5,-24 0,-5 -2,-9 -6,-11 -4,-3 -13,-5 -27,-6l3 -7 135 0 -3 7c-13,0 -23,3 -30,9 -7,5 -12,16 -17,33l-34 119c-6,19 -9,35 -9,47 0,11 5,21 13,29 9,8 21,12 37,12 14,0 26,-3 36,-8 10,-5 18,-12 25,-22 9,-12 16,-31 23,-54l36 -124c1,-7 2,-13 2,-17 0,-9 -2,-15 -8,-19 -4,-3 -13,-5 -26,-5l2 -7zm190 139l-24 82c-3,12 -5,20 -5,26 0,5 2,9 6,12 5,3 13,5 26,5l-3 7 -130 0 2 -7c14,0 23,-2 29,-7 6,-5 12,-17 17,-35l50 -174c2,-10 4,-17 4,-23 0,-5 -2,-10 -5,-12 -4,-3 -12,-5 -24,-6l1 -7 113 0c32,0 55,6 68,17 13,11 19,25 19,43 0,18 -7,35 -23,50 -9,9 -27,17 -51,24l24 83c7,22 12,35 17,40 5,4 13,7 24,7l0 7 -84 0 -38 -132 -7 0c-1,0 -3,0 -6,0zm3 -12c5,0 9,0 12,0 19,0 35,-6 47,-20 12,-13 18,-31 18,-52 0,-13 -3,-23 -9,-29 -7,-7 -16,-10 -27,-10 -2,0 -5,0 -9,0l-32 111zm321 -112l-30 105 9 0c25,0 42,-3 54,-9 11,-7 20,-18 28,-34l7 0 -30 105 -7 0c1,-7 1,-13 1,-17 0,-7 -2,-13 -6,-18 -4,-5 -10,-8 -17,-10 -4,-1 -14,-2 -28,-2l-15 0 -26 91c-2,8 -4,14 -4,18 0,3 2,5 5,7 4,3 12,4 24,4 23,0 44,-5 64,-14 20,-10 38,-25 54,-44l9 0 -29 74 -229 0 3 -7c13,0 22,-2 28,-7 6,-6 11,-17 16,-35l50 -175c3,-9 4,-17 4,-23 0,-5 -2,-9 -5,-11 -4,-3 -13,-5 -26,-6l2 -7 218 0 -17 68 -7 0c-1,-13 -3,-23 -7,-28 -5,-9 -13,-15 -22,-19 -9,-4 -25,-6 -46,-6l-25 0zm179 106l-4 -8c19,-10 31,-19 37,-26 4,-5 7,-10 7,-15 0,-5 -4,-11 -12,-18 -10,-9 -15,-18 -15,-27 0,-9 3,-17 10,-23 6,-7 14,-10 23,-10 9,0 17,4 23,11 7,7 11,16 11,26 0,17 -6,32 -17,46 -14,18 -35,33 -63,44zm89 1l-4 -9c18,-10 30,-18 37,-26 4,-5 6,-10 6,-15 0,-4 -3,-10 -10,-16 -7,-7 -11,-12 -14,-17 -1,-3 -2,-7 -2,-12 0,-9 3,-16 9,-23 7,-6 15,-9 24,-9 9,0 17,3 23,10 7,7 10,16 10,26 0,17 -5,32 -15,45 -14,17 -35,33 -64,46z"/>
   <path class="fil1" d="M17651 19652l213 0 0 32 -30 0c10,6 18,15 25,26 6,11 9,24 9,38 0,16 -3,29 -10,39 -6,10 -15,17 -27,21 25,17 37,39 37,66 0,21 -6,37 -17,48 -12,12 -30,18 -54,18l-146 0 0 -36 134 0c14,0 25,-2 31,-4 6,-2 11,-7 15,-13 4,-6 6,-13 6,-21 0,-15 -5,-28 -15,-38 -10,-10 -26,-14 -48,-14l-123 0 0 -36 138 0c16,0 28,-3 36,-9 8,-6 12,-16 12,-29 0,-10 -3,-19 -8,-28 -5,-9 -13,-15 -23,-19 -11,-4 -25,-5 -45,-5l-110 0 0 -36zm69 485l-5 37c-22,-5 -38,-16 -50,-32 -12,-16 -18,-36 -18,-61 0,-31 9,-55 28,-73 19,-19 46,-28 81,-28 35,0 63,10 83,28 19,18 29,42 29,71 0,29 -10,52 -29,70 -19,18 -46,27 -81,27 -2,0 -6,-1 -10,-1l0 -158c-23,2 -41,8 -53,20 -13,12 -19,27 -19,44 0,13 4,25 11,34 7,9 18,17 33,22zm58 -118l0 119c18,-2 31,-7 40,-14 14,-11 21,-26 21,-45 0,-16 -6,-30 -17,-41 -11,-11 -26,-17 -44,-19zm-127 201l213 0 0 32 -31 0c24,16 35,38 35,68 0,12 -2,24 -7,35 -4,10 -10,18 -18,24 -7,5 -16,9 -26,11 -7,1 -19,2 -35,2l-131 0 0 -36 129 0c15,0 26,-1 33,-4 7,-3 13,-8 17,-15 5,-7 7,-16 7,-25 0,-15 -5,-28 -15,-40 -9,-11 -28,-16 -55,-16l-116 0 0 -36zm64 213l5 36c-14,2 -25,7 -32,16 -8,9 -12,22 -12,39 0,16 4,28 10,36 7,8 15,12 24,12 8,0 14,-3 19,-10 3,-5 7,-18 12,-37 7,-26 13,-45 17,-55 5,-10 12,-18 21,-23 8,-5 18,-8 28,-8 10,0 18,2 26,7 8,4 15,10 20,17 4,6 8,13 11,23 3,10 4,20 4,31 0,17 -2,31 -7,44 -5,12 -12,22 -20,28 -8,6 -19,10 -33,12l-5 -35c11,-2 20,-6 26,-14 7,-8 10,-18 10,-32 0,-17 -3,-29 -9,-36 -5,-7 -11,-10 -19,-10 -4,0 -9,1 -12,4 -4,3 -7,8 -10,14 -1,4 -4,14 -9,32 -7,25 -12,43 -17,53 -4,10 -10,18 -19,24 -8,5 -18,8 -30,8 -12,0 -23,-3 -34,-10 -11,-7 -19,-17 -25,-31 -5,-13 -8,-28 -8,-44 0,-28 5,-49 17,-63 11,-15 28,-24 51,-28zm14 926l-5 35c-24,-4 -43,-14 -57,-30 -13,-16 -20,-35 -20,-58 0,-29 9,-53 28,-70 19,-18 46,-27 82,-27 22,0 42,4 60,12 17,7 30,19 38,34 9,16 13,33 13,51 0,23 -6,42 -17,56 -12,15 -29,24 -50,29l-5 -35c14,-4 25,-9 32,-18 7,-8 11,-19 11,-31 0,-18 -7,-32 -20,-44 -13,-11 -33,-17 -61,-17 -29,0 -50,6 -62,17 -13,11 -20,25 -20,42 0,14 4,26 13,36 9,9 22,15 40,18zm28 52c40,0 69,11 88,33 15,18 23,40 23,67 0,29 -9,53 -29,71 -19,19 -45,28 -79,28 -27,0 -48,-4 -64,-12 -16,-9 -28,-21 -36,-36 -9,-16 -13,-33 -13,-51 0,-30 9,-54 28,-73 19,-18 47,-27 82,-27zm0 37c-27,0 -47,6 -61,18 -13,12 -20,26 -20,45 0,17 7,32 21,44 13,12 34,18 61,18 27,0 47,-6 60,-18 13,-12 20,-27 20,-44 0,-19 -7,-33 -20,-45 -13,-12 -34,-18 -61,-18zm-106 203l293 0 0 36 -293 0 0 -36zm0 91l293 0 0 36 -293 0 0 -36zm69 237l-5 37c-22,-6 -38,-17 -50,-33 -12,-16 -18,-36 -18,-60 0,-31 9,-56 28,-74 19,-18 46,-27 81,-27 35,0 63,9 83,27 19,19 29,42 29,72 0,28 -10,51 -29,69 -19,18 -46,27 -81,27 -2,0 -6,0 -10,0l0 -158c-23,1 -41,8 -53,19 -13,12 -19,27 -19,45 0,13 4,24 11,33 7,10 18,17 33,23zm58 -118l0 118c18,-2 31,-6 40,-14 14,-11 21,-26 21,-44 0,-17 -6,-30 -17,-42 -11,-11 -26,-17 -44,-18zm-49 339l-5 35c-24,-4 -43,-14 -57,-30 -13,-15 -20,-35 -20,-58 0,-29 9,-52 28,-70 19,-18 46,-26 82,-26 22,0 42,3 60,11 17,8 30,19 38,35 9,15 13,32 13,50 0,23 -6,42 -17,57 -12,14 -29,24 -50,28l-5 -35c14,-3 25,-9 32,-18 7,-8 11,-18 11,-30 0,-19 -7,-33 -20,-45 -13,-11 -33,-17 -61,-17 -29,0 -50,6 -62,17 -13,11 -20,25 -20,43 0,14 4,25 13,35 9,9 22,15 40,18zm-46 144l-31 5c-3,-10 -4,-19 -4,-27 0,-13 2,-23 7,-31 4,-7 9,-12 16,-15 7,-3 21,-4 42,-4l123 0 0 -27 28 0 0 27 52 0 22 36 -74 0 0 36 -28 0 0 -36 -125 0c-10,0 -17,0 -19,2 -3,1 -6,3 -7,6 -2,3 -3,7 -3,12 0,4 0,9 1,16zm220 35l41 0 0 36 -41 0 0 -36zm-252 0l213 0 0 36 -213 0 0 -36zm106 78c40,0 69,11 88,33 15,18 23,40 23,66 0,29 -9,53 -29,72 -19,18 -45,28 -79,28 -27,0 -48,-5 -64,-13 -16,-8 -28,-20 -36,-36 -9,-15 -13,-32 -13,-51 0,-29 9,-53 28,-72 19,-18 47,-27 82,-27zm0 37c-27,0 -47,6 -61,17 -13,12 -20,27 -20,45 0,18 7,33 21,45 13,12 34,18 61,18 27,0 47,-6 60,-18 13,-12 20,-27 20,-45 0,-18 -7,-33 -20,-45 -13,-11 -34,-17 -61,-17zm-106 204l213 0 0 32 -31 0c24,16 35,38 35,67 0,13 -2,25 -7,36 -4,10 -10,18 -18,24 -7,5 -16,9 -26,11 -7,1 -19,2 -35,2l-131 0 0 -36 129 0c15,0 26,-1 33,-4 7,-3 13,-8 17,-15 5,-7 7,-16 7,-25 0,-15 -5,-29 -15,-40 -9,-11 -28,-16 -55,-16l-116 0 0 -36z"/>
   <path class="fil1" d="M17922 10290l-92 -23 0 -6c14,-2 26,-4 34,-8 13,-6 23,-13 29,-22 7,-10 11,-20 11,-30 0,-11 -4,-20 -12,-28 -8,-8 -17,-11 -27,-11 -10,0 -20,2 -29,8 -10,5 -24,18 -44,38 -15,16 -28,27 -39,33 -11,5 -23,8 -36,8 -15,0 -28,-4 -40,-12 -13,-7 -22,-18 -29,-33 -7,-15 -10,-32 -10,-50 0,-12 2,-26 5,-43 4,-18 5,-29 5,-35 0,-5 0,-9 -2,-12 -1,-4 -4,-8 -8,-14l0 -7 103 24 0 7c-18,2 -33,6 -46,11 -13,6 -22,14 -29,24 -8,11 -11,23 -11,36 0,13 4,24 13,33 9,9 19,13 31,13 9,0 19,-2 28,-7 9,-5 23,-17 40,-35 18,-18 34,-30 48,-37 10,-5 21,-7 32,-7 21,0 38,8 53,24 14,15 22,36 22,62 0,11 -3,27 -8,46 -3,11 -5,19 -5,23 0,4 1,8 3,11 1,3 5,6 10,11l0 8zm-92 94l-113 -36c55,24 89,42 101,55 8,7 12,14 12,22 0,6 -2,10 -7,13 -4,4 -9,5 -17,5 -13,0 -24,-3 -32,-9 -6,-4 -9,-8 -9,-13 0,-5 3,-9 8,-12 5,-2 7,-4 8,-5 1,-1 1,-2 1,-3 0,-2 0,-3 -1,-4 -1,-3 -5,-7 -11,-12 -7,-4 -17,-10 -32,-17 -14,-7 -27,-12 -37,-16 -10,-3 -29,-9 -57,-17l0 -49 133 38c9,2 16,4 19,4 4,0 7,-1 9,-3 2,-1 3,-3 4,-6 1,-3 1,-9 1,-17l6 2 14 66 0 14zm92 147c0,8 -3,15 -9,21 -6,6 -13,8 -21,8 -8,0 -15,-2 -21,-8 -5,-6 -8,-13 -8,-21 0,-8 3,-15 8,-21 6,-6 13,-8 21,-8 8,0 15,2 21,8 6,6 9,13 9,21zm-92 16l-141 -44c-8,-2 -13,-4 -16,-4 -1,0 -3,1 -4,2 -2,1 -2,3 -2,4 0,2 1,4 3,7 5,5 14,13 28,21l-4 7c-37,-21 -55,-42 -55,-65 0,-9 2,-16 7,-21 5,-5 11,-8 18,-8 5,0 12,2 19,4l96 31c9,3 16,4 20,4 3,0 6,-1 8,-4 2,-3 4,-6 4,-11 0,-2 -1,-5 -1,-8l8 3 12 70 0 12zm0 117l-86 -26c25,18 42,31 51,40 13,12 23,23 27,33 5,9 8,18 8,26 0,7 -3,14 -9,19 -6,5 -13,8 -22,8 -7,0 -16,-2 -27,-5l-84 -28c-7,-2 -12,-3 -14,-3 -1,0 -2,0 -3,1 -2,1 -2,2 -2,4 0,1 0,2 2,4 3,4 9,9 16,14 2,1 4,3 8,6l-5 8c-32,-20 -48,-41 -48,-63 0,-8 2,-15 6,-20 4,-4 10,-7 16,-7 6,0 14,2 25,6l86 27c5,2 9,3 12,3 2,0 3,-1 4,-2 1,-2 2,-3 2,-5 0,-6 -4,-12 -11,-20 -17,-20 -44,-39 -78,-58l-60 -17 0 -52 128 39c13,3 22,5 27,6 2,0 4,-1 6,-2 2,-1 3,-3 4,-6 0,-3 1,-7 1,-15l8 2 12 70 0 13zm-12 273l0 54 -22 -7 0 -27c-8,4 -16,6 -23,6 -12,0 -23,-3 -34,-10 -10,-6 -18,-16 -25,-29 -6,-13 -9,-27 -9,-43 0,-4 1,-8 1,-13 1,-5 2,-11 3,-17 -5,-8 -8,-14 -11,-16 -2,-2 -4,-3 -6,-3 -2,0 -4,2 -6,3 -3,4 -5,9 -7,16 -6,27 -10,45 -14,53 -5,12 -11,21 -19,27 -7,6 -17,9 -28,9 -16,0 -31,-8 -43,-23 -13,-15 -19,-39 -19,-71 0,-32 5,-56 16,-71 8,-11 17,-17 28,-17 8,0 15,4 22,11 7,7 13,23 19,47 4,-8 8,-14 12,-17 5,-3 10,-5 16,-5 9,0 16,3 23,10 7,7 14,19 20,36 5,-13 12,-23 20,-28 9,-6 18,-9 29,-9 12,0 23,4 33,11 11,7 19,17 26,30 6,14 10,30 10,48 0,11 -2,21 -4,30 -1,4 -4,9 -8,15zm2 -41c0,-7 -2,-12 -7,-17 -6,-7 -17,-13 -32,-18 -16,-6 -30,-8 -44,-8 -7,0 -12,1 -15,5 -4,4 -6,9 -6,14 0,6 2,10 5,14 8,8 19,14 35,20 17,6 31,8 44,8 6,0 11,-1 14,-5 4,-4 6,-8 6,-13zm-184 -69c-5,-13 -10,-21 -16,-26 -6,-5 -12,-7 -19,-7 -8,0 -16,5 -23,14 -7,9 -11,23 -11,43 0,17 3,29 9,36 6,8 14,11 22,11 7,0 13,-3 17,-10 5,-6 10,-20 15,-39 2,-9 4,-16 6,-22zm119 172l0 117 -42 -13 0 -117 42 13zm167 360l-92 -23 0 -7c14,-1 26,-4 34,-8 13,-5 23,-13 29,-22 7,-9 11,-19 11,-30 0,-10 -4,-19 -12,-27 -8,-8 -17,-12 -27,-12 -10,0 -20,3 -29,8 -10,6 -24,18 -44,39 -15,16 -28,27 -39,32 -11,6 -23,9 -36,9 -15,0 -28,-4 -40,-12 -13,-8 -22,-19 -29,-34 -7,-14 -10,-31 -10,-50 0,-11 2,-26 5,-43 4,-17 5,-29 5,-35 0,-4 0,-8 -2,-12 -1,-3 -4,-8 -8,-13l0 -8 103 24 0 8c-18,2 -33,5 -46,11 -13,6 -22,14 -29,24 -8,10 -11,22 -11,36 0,13 4,24 13,33 9,9 19,13 31,13 9,0 19,-3 28,-8 9,-5 23,-16 40,-34 18,-18 34,-30 48,-37 10,-5 21,-8 32,-8 21,0 38,8 53,24 14,16 22,37 22,62 0,12 -3,27 -8,46 -3,11 -5,19 -5,24 0,4 1,7 3,10 1,3 5,7 10,11l0 9zm-92 109l-136 -43c-6,-2 -11,-3 -13,-3 -1,0 -2,1 -3,1 -1,1 -1,3 -1,4 0,6 5,14 16,24 16,14 39,30 68,45l61 19 2 50 -133 -39c-11,-3 -17,-5 -19,-5 -1,0 -2,0 -3,1 -1,1 -2,3 -2,4 0,1 1,3 2,5 4,5 12,11 23,19l-5 7c-32,-18 -48,-39 -48,-61 0,-9 2,-15 6,-20 4,-5 10,-7 16,-7 8,0 17,2 28,5l34 10c-25,-17 -42,-29 -51,-37 -13,-12 -22,-22 -26,-30 -5,-8 -7,-16 -7,-23 0,-7 3,-14 8,-19 5,-5 11,-7 19,-7 7,0 16,2 28,5l79 25c13,4 22,6 27,6 2,0 4,0 5,-1 2,-2 3,-3 4,-5 0,-2 1,-6 1,-12l8 2 12 68 0 12zm0 218l-86 -26c26,17 44,29 53,37 13,12 22,21 26,29 5,7 7,15 7,23 0,8 -3,15 -8,18 -6,4 -12,6 -18,6 -6,0 -16,-2 -29,-5l-31 -10c26,19 44,32 53,41 13,12 23,23 27,32 4,7 6,14 6,21 0,7 -3,14 -8,19 -6,5 -12,7 -21,7 -8,0 -19,-2 -32,-6l-74 -24c-10,-4 -17,-6 -21,-6 -1,0 -2,0 -3,1 0,1 -1,2 -1,3 0,2 1,3 1,4 4,5 10,10 17,15 2,2 4,3 7,6l-4 7c-17,-9 -29,-20 -37,-31 -8,-11 -12,-21 -12,-30 0,-9 2,-15 7,-20 4,-5 9,-8 15,-8 6,0 15,2 27,6l78 25c11,3 17,5 20,5 1,0 2,-1 3,-2 1,-1 1,-2 1,-3 0,-2 0,-4 -1,-6 -1,-3 -5,-7 -11,-13 -5,-6 -15,-15 -30,-26 -14,-11 -26,-19 -34,-22 -8,-4 -18,-8 -31,-12l-42 -13 0 -50 131 38c7,2 12,3 14,3 1,0 2,0 3,-1 1,-1 1,-2 1,-3 0,-5 -6,-12 -19,-23 -20,-16 -45,-31 -73,-44l-57 -17 0 -52 129 39c12,4 21,6 27,6 2,0 4,-1 5,-2 2,-1 3,-3 4,-6 0,-2 1,-7 1,-14l8 1 12 70 0 13zm0 318l-86 -26c26,17 44,29 53,37 13,12 22,22 26,29 5,8 7,15 7,23 0,9 -3,15 -8,19 -6,4 -12,5 -18,5 -6,0 -16,-1 -29,-5l-31 -9c26,18 44,32 53,40 13,12 23,23 27,32 4,7 6,14 6,21 0,8 -3,14 -8,19 -6,5 -12,8 -21,8 -8,0 -19,-3 -32,-7l-74 -24c-10,-4 -17,-6 -21,-6 -1,0 -2,1 -3,2 0,0 -1,1 -1,3 0,1 1,2 1,3 4,5 10,10 17,16 2,1 4,3 7,5l-4 7c-17,-9 -29,-19 -37,-31 -8,-11 -12,-21 -12,-30 0,-8 2,-15 7,-20 4,-5 9,-7 15,-7 6,0 15,1 27,5l78 25c11,3 17,5 20,5 1,0 2,0 3,-1 1,-1 1,-3 1,-4 0,-2 0,-4 -1,-5 -1,-3 -5,-8 -11,-14 -5,-6 -15,-14 -30,-26 -14,-11 -26,-18 -34,-22 -8,-4 -18,-8 -31,-12l-42 -12 0 -51 131 38c7,2 12,3 14,3 1,0 2,0 3,-1 1,-1 1,-2 1,-3 0,-4 -6,-12 -19,-23 -20,-16 -45,-31 -73,-44l-57 -17 0 -52 129 39c12,4 21,6 27,6 2,0 4,-1 5,-2 2,-1 3,-3 4,-5 0,-3 1,-8 1,-15l8 1 12 71 0 12zm-110 271c-9,-1 -16,-2 -22,-2 -10,0 -18,3 -24,9 -6,6 -9,13 -9,23 0,10 2,19 6,28 4,10 11,21 21,33l-5 6c-17,-15 -30,-30 -37,-45 -7,-14 -11,-30 -11,-48 0,-22 5,-37 16,-46 11,-8 23,-13 37,-13 22,0 43,7 65,20 22,12 40,29 53,51 13,22 20,44 20,66 0,12 -3,20 -8,26 -6,6 -12,8 -21,8 -9,0 -19,-2 -28,-8 -12,-8 -22,-17 -30,-29 -8,-12 -14,-25 -18,-40 -2,-10 -4,-23 -5,-39zm10 2c1,12 4,21 7,27 3,7 8,13 14,19 7,7 15,12 25,17 10,4 19,6 28,6 4,0 7,-1 9,-3 2,-2 3,-4 3,-8 0,-6 -4,-13 -13,-21 -16,-15 -41,-27 -73,-37zm100 221l-113 -36c55,24 89,42 101,55 8,7 12,14 12,22 0,6 -2,10 -7,13 -4,4 -9,5 -17,5 -13,0 -24,-3 -32,-9 -6,-4 -9,-8 -9,-13 0,-5 3,-9 8,-12 5,-2 7,-4 8,-5 1,-1 1,-2 1,-3 0,-2 0,-3 -1,-4 -1,-3 -5,-7 -11,-12 -7,-4 -17,-10 -32,-17 -14,-7 -27,-12 -37,-16 -10,-3 -29,-9 -57,-17l0 -49 133 38c9,2 16,4 19,4 4,0 7,-1 9,-3 2,-1 3,-3 4,-6 1,-3 1,-9 1,-17l6 2 14 66 0 14zm-186 302l0 -144 8 0c34,38 66,69 95,95 24,21 43,35 55,40 13,6 26,9 39,9 12,0 22,-4 30,-12 7,-7 11,-17 11,-28 0,-19 -10,-35 -31,-48l4 -7c19,7 34,16 45,27 14,15 21,33 21,53 0,20 -6,36 -18,48 -12,13 -26,19 -41,19 -14,0 -27,-3 -41,-9 -13,-6 -30,-19 -50,-38 -16,-15 -43,-45 -81,-89l0 52c0,17 2,28 6,35 4,7 11,13 23,19l0 9 -75 -31zm277 204c0,13 -4,24 -12,33 -7,9 -17,16 -30,20 -12,4 -24,6 -37,6 -21,0 -43,-3 -65,-8 -23,-6 -44,-13 -63,-23 -18,-10 -34,-21 -47,-33 -8,-8 -15,-17 -20,-28 -6,-11 -8,-22 -8,-33 0,-11 3,-20 9,-29 7,-8 16,-15 28,-20 12,-5 26,-8 39,-8 31,0 62,6 93,17 25,9 47,21 66,34 18,14 31,26 37,38 7,11 10,22 10,34zm-14 1c0,-4 0,-7 -2,-10 -2,-3 -5,-6 -9,-10 -5,-3 -15,-7 -30,-12 -28,-10 -62,-20 -102,-32 -30,-9 -50,-14 -59,-16 -12,-2 -23,-3 -32,-3 -7,0 -12,1 -16,5 -4,3 -5,8 -5,13 0,5 1,10 4,13 6,7 16,13 30,18 34,11 80,25 138,41 26,8 47,11 61,11 7,0 13,-1 16,-5 4,-3 6,-8 6,-13zm-263 204l0 -144 8 0c34,38 66,69 95,95 24,21 43,35 55,40 13,6 26,9 39,9 12,0 22,-4 30,-12 7,-7 11,-17 11,-28 0,-19 -10,-35 -31,-48l4 -7c19,7 34,16 45,27 14,15 21,33 21,54 0,19 -6,35 -18,47 -12,13 -26,19 -41,19 -14,0 -27,-3 -41,-9 -13,-6 -30,-19 -50,-38 -16,-15 -43,-44 -81,-89l0 52c0,17 2,28 6,35 4,7 11,13 23,19l0 9 -75 -31zm277 243l-228 -68c-12,-3 -19,-5 -22,-5 -4,0 -7,1 -10,4 -4,2 -6,5 -7,8 -1,3 -2,11 -3,26l-7 -3 0 -136 7 2c0,13 2,23 4,28 2,6 5,10 9,13 5,4 15,8 29,12l135 40c21,6 32,9 33,9 3,1 7,2 10,2 6,0 11,-2 14,-6 4,-4 5,-9 5,-16 0,-3 0,-10 -1,-20l7 -1 25 102 0 9z"/>
   <path class="fil1" d="M16316 4811c13,0 24,3 33,11 9,8 16,18 20,30 4,13 6,25 6,37 0,21 -3,43 -8,66 -6,22 -14,43 -24,62 -9,19 -20,35 -32,48 -8,8 -17,14 -28,20 -11,5 -22,8 -33,8 -11,0 -20,-3 -29,-10 -9,-6 -15,-15 -20,-28 -5,-12 -8,-25 -8,-39 0,-31 6,-61 17,-92 9,-26 21,-48 34,-66 14,-19 26,-31 38,-38 11,-6 22,-9 34,-9zm1 13c-4,0 -7,1 -10,3 -3,1 -6,4 -10,9 -3,4 -8,14 -13,30 -9,27 -20,61 -31,101 -9,31 -14,51 -16,59 -2,13 -4,24 -4,33 0,6 2,12 6,15 3,4 8,6 13,6 5,0 10,-2 13,-5 7,-5 13,-16 18,-30 11,-33 25,-79 41,-138 8,-26 11,-46 11,-61 0,-7 -2,-12 -5,-16 -4,-4 -8,-6 -13,-6zm242 -13l-67 227c-4,12 -6,20 -6,23 0,3 2,7 4,10 3,3 5,6 8,7 3,1 12,1 26,2l-2 7 -137 0 2 -7c14,0 23,-1 29,-3 5,-2 9,-5 13,-10 3,-5 7,-14 11,-29l40 -135c6,-20 9,-31 10,-32 1,-4 1,-7 1,-10 0,-6 -2,-11 -6,-15 -3,-3 -9,-5 -15,-5 -4,0 -10,1 -20,2l-2 -8 102 -24 9 0zm105 135c-9,-11 -15,-22 -19,-33 -4,-10 -6,-21 -6,-31 0,-20 7,-37 20,-51 14,-13 32,-20 54,-20 21,0 38,5 50,17 12,11 18,25 18,41 0,11 -3,20 -8,29 -5,9 -12,16 -22,23 -6,4 -15,9 -28,13 16,20 25,35 29,43 4,9 6,18 6,29 0,24 -9,45 -25,62 -17,17 -38,25 -64,25 -23,0 -41,-6 -54,-18 -13,-13 -20,-28 -20,-47 0,-13 3,-24 9,-35 5,-11 14,-20 25,-29 8,-6 20,-12 35,-18zm51 -21c7,-5 12,-10 14,-16 5,-13 7,-30 7,-51 0,-13 -2,-22 -6,-27 -4,-6 -9,-8 -14,-8 -7,0 -13,2 -16,7 -7,9 -10,22 -10,38 0,9 2,18 5,26 4,9 10,19 20,31zm-44 30c-7,6 -12,11 -14,15 -5,7 -9,17 -12,31 -4,13 -6,27 -6,42 0,13 3,22 7,28 5,6 12,9 20,9 9,0 18,-5 25,-13 9,-12 14,-27 14,-44 0,-11 -2,-22 -7,-31 -4,-10 -13,-22 -27,-37z"/>
   <path class="fil1" d="M13674 24461l5 9c-19,11 -33,20 -39,28 -5,5 -7,11 -7,16 0,4 3,10 11,17 7,7 12,13 14,18 2,3 3,7 3,12 0,9 -3,17 -10,24 -7,7 -15,10 -25,10 -10,0 -18,-3 -25,-11 -7,-7 -10,-16 -10,-27 0,-18 5,-33 16,-47 14,-19 37,-35 67,-49zm94 0l4 9c-20,11 -33,20 -39,28 -5,5 -7,11 -7,16 0,5 4,11 12,18 11,10 16,20 16,29 0,9 -3,18 -10,25 -7,7 -15,10 -24,10 -10,0 -18,-4 -25,-11 -8,-8 -11,-17 -11,-29 0,-17 6,-33 18,-48 15,-19 37,-35 66,-47zm140 7l89 191 40 -139c2,-8 3,-14 3,-20 0,-7 -2,-13 -6,-17 -5,-5 -12,-7 -23,-8l2 -7 90 0 -2 7c-12,1 -21,4 -29,10 -7,6 -13,17 -19,35l-68 237 -7 0 -116 -243 -54 189c-2,7 -3,13 -3,18 0,8 3,14 8,19 5,4 13,7 24,7l-2 7 -93 0 2 -7c8,0 13,-1 17,-2 6,-3 11,-7 17,-13 6,-7 10,-16 14,-28l59 -208c-7,-9 -13,-14 -17,-17 -5,-2 -12,-4 -22,-4l2 -7 94 0zm227 207c-2,9 -2,16 -2,22 0,11 3,19 9,26 6,6 14,9 25,9 9,0 19,-2 29,-6 10,-5 22,-12 35,-22l6 5c-16,18 -32,31 -47,39 -15,8 -32,12 -51,12 -23,0 -39,-6 -48,-17 -9,-11 -14,-24 -14,-39 0,-23 7,-46 20,-69 14,-23 32,-42 55,-56 23,-13 46,-20 70,-20 11,0 20,2 26,8 6,6 9,13 9,21 0,10 -2,20 -8,30 -9,13 -19,24 -31,32 -13,8 -27,14 -42,18 -10,3 -24,5 -41,7zm2 -11c12,-2 22,-4 29,-8 6,-3 13,-8 20,-15 6,-7 12,-15 17,-26 5,-10 7,-20 7,-30 0,-4 -1,-7 -3,-9 -2,-2 -5,-3 -9,-3 -6,0 -14,4 -23,14 -15,17 -28,43 -38,77zm308 -105l15 148c24,-21 39,-38 46,-50 7,-12 11,-22 11,-31 0,-3 -1,-6 -2,-9 -2,-3 -5,-7 -9,-13 -4,-5 -7,-9 -7,-10 -1,-3 -2,-6 -2,-10 0,-7 3,-13 8,-18 5,-5 11,-7 18,-7 8,0 14,2 18,7 6,7 9,16 9,25 0,16 -7,36 -23,62 -15,25 -51,61 -106,107l-9 0 -13 -129 -91 129 -9 0c3,-39 4,-76 4,-110 0,-22 -1,-38 -4,-48 -1,-5 -4,-10 -7,-13 -4,-3 -8,-4 -12,-4 -2,0 -5,0 -9,1l0 -8 73 -19c4,11 6,21 8,31 2,15 3,32 3,52 0,7 0,18 0,32l81 -115 9 0zm316 69l-24 -105c-4,-18 -9,-30 -14,-37 -5,-5 -13,-9 -24,-11l2 -7 137 0 -2 7c-14,0 -23,3 -30,8 -6,6 -9,12 -9,20 0,5 1,13 4,24l19 84 46 -63c12,-16 19,-28 22,-34 3,-7 4,-13 4,-18 0,-5 -1,-10 -5,-14 -4,-3 -10,-6 -19,-7l3 -7 86 0 0 7c-8,1 -15,4 -21,8 -5,4 -16,18 -33,40l-81 112 -17 66c-4,14 -6,22 -6,25 0,6 2,11 7,15 5,4 13,6 23,6l9 0 -3 7 -145 0 2 -7c11,0 19,-2 26,-5 6,-3 11,-7 14,-11 2,-4 6,-13 10,-28l19 -75zm244 -69c11,0 21,2 31,7 10,5 17,12 22,22 5,9 8,19 8,30 0,23 -7,45 -19,68 -13,23 -30,41 -51,54 -20,13 -41,20 -63,20 -19,0 -33,-6 -44,-17 -10,-12 -16,-26 -16,-42 0,-20 4,-38 12,-55 8,-17 18,-32 30,-45 12,-12 26,-23 41,-31 16,-7 32,-11 49,-11zm-9 11c-7,0 -14,2 -19,6 -9,9 -21,30 -33,62 -12,33 -18,62 -18,88 0,7 1,12 5,16 4,4 9,6 14,6 6,0 11,-1 15,-5 6,-5 14,-16 23,-34 9,-17 16,-37 22,-58 6,-21 9,-41 9,-58 0,-8 -2,-13 -6,-17 -3,-4 -7,-6 -12,-6zm193 -11l-37 118c25,-58 44,-93 57,-107 8,-7 16,-11 24,-11 6,0 10,2 14,6 3,4 5,10 5,18 0,14 -3,25 -9,34 -5,6 -9,9 -14,9 -6,0 -10,-2 -13,-7 -2,-6 -4,-9 -5,-9 -2,-1 -3,-2 -4,-2 -1,0 -3,1 -4,1 -3,2 -7,6 -12,13 -5,6 -11,17 -18,33 -7,15 -13,28 -17,39 -4,11 -10,31 -18,60l-52 0 40 -140c3,-10 4,-17 4,-20 0,-4 -1,-7 -2,-9 -2,-2 -4,-4 -7,-5 -3,-1 -9,-1 -18,-1l2 -6 70 -14 14 0zm199 -98l-58 199 47 -43 16 -15c5,-5 8,-9 10,-12 1,-2 1,-4 1,-6 0,-3 -1,-5 -4,-7 -3,-2 -9,-3 -19,-4l1 -8 86 0 -2 8c-10,2 -18,5 -24,8 -5,2 -11,6 -19,12 -10,8 -18,14 -23,19l-9 9 13 57c5,22 9,34 11,38 2,2 3,3 5,3 5,0 11,-6 18,-18 1,-2 2,-4 4,-7l8 5c-11,21 -23,36 -36,47 -9,7 -17,11 -24,11 -7,0 -13,-3 -18,-8 -5,-5 -9,-18 -14,-40l-11 -48 -23 20 -20 73 -55 0 70 -238c3,-10 4,-17 4,-20 0,-4 0,-6 -1,-8 -2,-2 -3,-4 -5,-5 -2,-1 -7,-1 -13,-1l2 -8 69 -13 13 0zm67 363l-5 -10c22,-12 35,-21 41,-27 4,-5 6,-10 6,-15 0,-6 -4,-12 -11,-18 -7,-7 -12,-13 -15,-17 -1,-4 -2,-8 -2,-14 0,-9 3,-17 10,-23 7,-7 15,-10 25,-10 9,0 17,3 24,11 7,7 11,17 11,28 0,17 -7,35 -21,52 -13,17 -34,31 -63,43zm373 -356l97 0 -2 7c-11,1 -20,4 -26,8 -9,7 -17,19 -21,36l-38 131c-12,41 -28,70 -48,86 -20,16 -45,25 -76,25 -18,0 -34,-3 -47,-8 -13,-5 -23,-11 -30,-17 -6,-6 -11,-14 -14,-24 -3,-9 -5,-17 -5,-23 0,-10 3,-25 8,-44l36 -126c4,-11 5,-20 5,-25 0,-6 -2,-10 -6,-13 -4,-3 -13,-5 -28,-6l3 -7 142 0 -3 7c-13,0 -24,3 -31,9 -7,6 -13,18 -18,35l-36 126c-6,21 -9,37 -9,50 0,12 4,22 13,30 10,9 22,13 39,13 15,0 28,-3 38,-8 11,-6 19,-14 26,-24 10,-13 18,-32 25,-57l37 -130c2,-8 3,-14 3,-19 0,-8 -3,-15 -9,-20 -4,-3 -13,-5 -27,-5l2 -7zm329 -7l-24 98 -7 0c-2,-16 -5,-28 -9,-37 -6,-13 -13,-24 -23,-31 -10,-7 -21,-11 -32,-11 -11,0 -20,5 -29,13 -8,8 -12,18 -12,28 0,11 3,21 8,31 6,10 20,25 41,46 17,16 29,30 35,41 5,12 8,25 8,38 0,16 -4,30 -12,43 -8,13 -20,23 -35,30 -16,7 -34,11 -53,11 -12,0 -28,-2 -46,-6 -18,-3 -30,-5 -36,-5 -5,0 -9,0 -13,2 -4,1 -9,4 -14,9l-9 0 26 -109 8 0c2,19 6,35 12,48 6,14 14,24 25,32 11,7 23,11 38,11 13,0 25,-5 34,-14 10,-9 14,-20 14,-32 0,-11 -2,-21 -8,-30 -5,-10 -17,-24 -36,-43 -19,-18 -32,-35 -39,-50 -5,-10 -8,-22 -8,-34 0,-22 8,-40 25,-55 17,-16 39,-24 66,-24 12,0 28,3 48,9 12,3 20,4 25,4 4,0 8,0 11,-2 3,-2 7,-5 12,-11l9 0zm178 201l-88 0 -18 22 -21 24c-4,5 -6,10 -8,14 -2,4 -2,7 -2,10 0,4 1,7 5,10 4,3 10,4 18,5l0 7 -86 0 3 -7c7,-2 14,-4 20,-8 8,-6 19,-18 34,-36l202 -242 10 0 -9 235c-1,12 -1,19 -1,22 0,10 2,17 6,21 3,4 10,7 19,8l-2 7 -124 0 2 -7c13,-1 20,-2 21,-3 4,-2 8,-6 11,-13 3,-6 5,-17 6,-33l2 -36zm0 -18l5 -93 -79 93 74 0zm177 -48l-5 -9c20,-11 33,-20 39,-28 5,-5 7,-10 7,-16 0,-5 -4,-11 -12,-18 -11,-10 -16,-19 -16,-29 0,-9 4,-17 10,-24 7,-7 15,-11 25,-11 9,0 17,4 25,12 7,8 10,17 10,28 0,17 -5,33 -17,48 -15,19 -37,35 -66,47zm93 0l-4 -9c19,-10 32,-19 39,-27 5,-6 7,-11 7,-16 0,-5 -4,-11 -11,-17 -7,-7 -12,-13 -15,-18 -1,-3 -2,-8 -2,-12 0,-10 3,-18 10,-25 7,-6 15,-10 25,-10 10,0 18,4 24,11 7,7 11,17 11,28 0,17 -6,33 -17,47 -14,18 -36,34 -67,48zm651 158l-151 0 0 -8c39,-36 72,-70 100,-100 22,-26 37,-45 42,-59 6,-13 9,-27 9,-40 0,-13 -4,-24 -12,-32 -8,-8 -18,-12 -30,-12 -20,0 -36,11 -50,33l-8 -4c7,-21 17,-37 28,-47 16,-15 35,-23 57,-23 21,0 37,7 50,19 14,13 20,27 20,44 0,14 -3,28 -9,42 -7,15 -20,32 -40,54 -16,16 -47,44 -94,85l55 0c17,0 30,-2 37,-6 7,-4 14,-12 20,-24l10 0 -34 78zm216 -292c13,0 25,4 35,12 9,8 16,19 21,32 4,13 6,26 6,39 0,23 -3,46 -9,69 -5,24 -14,46 -24,66 -10,20 -22,37 -35,50 -8,9 -17,16 -29,21 -11,6 -23,9 -35,9 -11,0 -21,-3 -30,-10 -9,-7 -16,-17 -22,-30 -5,-12 -8,-26 -8,-41 0,-32 6,-65 18,-97 10,-27 22,-51 36,-70 15,-20 28,-33 40,-40 12,-6 24,-10 36,-10zm1 15c-4,0 -8,0 -11,2 -3,2 -6,5 -10,10 -4,5 -8,15 -13,31 -10,29 -21,65 -33,107 -10,33 -15,54 -17,63 -3,13 -4,24 -4,34 0,7 2,12 5,16 4,4 9,6 14,6 6,0 11,-1 14,-4 8,-7 14,-17 19,-32 11,-36 26,-84 44,-146 7,-27 11,-49 11,-64 0,-8 -2,-13 -5,-17 -4,-4 -9,-6 -14,-6zm215 277l-152 0 0 -8c40,-36 73,-70 100,-100 23,-26 37,-45 43,-59 6,-13 9,-27 9,-40 0,-13 -4,-24 -12,-32 -8,-8 -18,-12 -31,-12 -19,0 -36,11 -50,33l-7 -4c7,-21 16,-37 28,-47 16,-15 35,-23 57,-23 20,0 37,7 50,19 13,13 20,27 20,44 0,14 -3,28 -10,42 -6,15 -19,32 -40,54 -15,16 -47,44 -94,85l55 0c18,0 30,-2 38,-6 7,-4 13,-12 19,-24l10 0 -33 78zm256 -292l-71 240c-4,13 -5,21 -5,24 0,4 1,7 4,11 2,3 5,6 8,7 3,1 12,2 27,3l-2 7 -144 0 2 -7c14,-1 24,-2 30,-4 5,-2 10,-5 14,-10 3,-5 7,-15 12,-31l42 -142c6,-22 10,-33 10,-35 1,-3 1,-7 1,-10 0,-6 -2,-11 -5,-15 -4,-4 -10,-6 -17,-6 -4,0 -11,1 -21,2l-2 -8 108 -26 9 0z"/>
   <path class="fil0" d="M16963 24506c68,0 123,55 123,122 0,68 -55,123 -123,123 -68,0 -123,-55 -123,-123 0,-67 55,-122 123,-122zm0 14c60,0 109,48 109,108 0,60 -49,109 -109,109 -60,0 -109,-49 -109,-109 0,-60 49,-108 109,-108zm44 130l27 4c-3,19 -10,33 -23,44 -12,11 -27,16 -45,16 -22,0 -40,-7 -54,-22 -13,-15 -20,-36 -20,-63 0,-18 3,-33 9,-46 5,-13 14,-23 26,-30 12,-7 25,-10 39,-10 18,0 33,5 44,14 11,9 18,21 22,38l-27 4c-3,-11 -7,-19 -14,-25 -6,-5 -14,-8 -24,-8 -14,0 -25,5 -34,15 -8,10 -13,26 -13,47 0,22 4,38 13,48 8,10 19,15 33,15 11,0 20,-3 27,-10 7,-7 12,-17 14,-31z"/>
   <path class="fil1" d="M2630 12480l9 -5c10,20 20,33 28,40 5,4 11,6 15,6 5,0 11,-3 18,-10 7,-8 13,-12 18,-15 3,-2 7,-3 12,-3 9,0 17,4 24,11 7,6 10,15 10,25 0,9 -3,18 -11,24 -7,7 -16,10 -27,10 -18,0 -34,-5 -48,-16 -18,-14 -34,-36 -48,-67zm0 -93l9 -5c11,20 20,33 28,40 5,4 10,6 16,6 5,0 11,-4 18,-11 10,-11 19,-17 29,-17 9,0 18,4 24,10 7,7 11,15 11,25 0,9 -4,18 -12,25 -7,7 -17,10 -28,10 -17,0 -33,-5 -48,-17 -19,-15 -35,-37 -47,-66zm7 -141l191 -89 -139 -40c-8,-2 -15,-3 -20,-3 -8,0 -13,2 -17,7 -5,4 -7,12 -8,22l-7 -2 0 -90 7 2c1,12 4,21 10,29 6,7 17,14 35,19l237 68 0 7 -244 116 190 54c7,2 13,3 18,3 8,0 14,-3 19,-8 4,-5 7,-13 7,-23l7 1 0 94 -7 -2c0,-8 -1,-14 -2,-17 -3,-6 -7,-12 -13,-18 -7,-5 -16,-10 -28,-13l-209 -60c-8,7 -14,13 -16,18 -2,4 -4,11 -4,21l-7 -2 0 -94zm207 -226c9,1 16,2 22,2 11,0 19,-4 25,-10 7,-6 10,-14 10,-24 0,-10 -2,-20 -6,-30 -5,-10 -12,-21 -23,-34l6 -7c18,16 31,32 39,47 8,16 12,33 12,51 0,24 -6,40 -17,49 -11,9 -25,13 -39,13 -23,0 -46,-6 -69,-20 -23,-13 -42,-32 -56,-55 -14,-23 -21,-46 -21,-69 0,-12 3,-21 9,-27 5,-6 13,-9 21,-9 10,0 20,3 30,9 13,8 24,18 32,31 8,12 14,26 18,41 3,11 5,24 7,42zm-11 -2c-2,-13 -5,-22 -8,-29 -3,-7 -8,-14 -15,-20 -7,-7 -15,-13 -26,-18 -11,-4 -21,-7 -30,-7 -4,0 -7,1 -9,4 -2,2 -3,5 -3,8 0,7 4,14 14,23 17,15 43,28 77,39zm-106 -308l148 -16c-21,-23 -37,-39 -49,-46 -12,-7 -23,-10 -31,-10 -3,0 -6,0 -9,2 -3,1 -7,4 -13,8 -5,4 -9,7 -10,7 -3,1 -6,2 -10,2 -7,0 -13,-3 -18,-8 -5,-4 -8,-11 -8,-18 0,-8 3,-13 8,-18 7,-6 16,-9 25,-9 16,0 36,8 62,23 25,16 61,51 107,106l0 9 -129 13 129 91 0 9c-39,-2 -76,-3 -110,-3 -22,0 -38,1 -48,3 -6,2 -10,4 -13,8 -3,3 -4,7 -4,11 0,3 0,6 1,9l-8 0 -20 -73c11,-3 22,-6 32,-8 15,-2 32,-3 52,-3 7,0 18,0 32,1l-116 -82 0 -8zm70 -317l-105 24c-18,4 -30,9 -37,15 -5,4 -9,12 -11,24l-7 -3 0 -137 7 3c0,13 3,23 8,29 6,6 12,9 20,9 5,0 13,-1 24,-4l84 -19 -63 -46c-16,-11 -28,-19 -35,-22 -6,-3 -12,-4 -17,-4 -5,0 -10,2 -14,6 -3,3 -6,9 -7,18l-7 -2 0 -86 7 0c1,8 4,14 8,20 4,6 18,16 40,33l112 81 66 17c14,4 22,6 24,6 7,0 12,-2 16,-7 4,-5 6,-12 6,-23l0 -8 7 2 0 146 -7 -3c0,-10 -2,-19 -5,-25 -3,-7 -7,-12 -12,-15 -3,-2 -12,-5 -27,-10l-75 -19zm-70 -244c0,-11 3,-21 8,-31 5,-10 12,-17 22,-22 9,-5 19,-8 30,-8 23,0 45,7 68,20 23,12 41,29 54,50 13,21 20,42 20,63 0,19 -6,34 -17,44 -12,11 -26,16 -42,16 -20,0 -38,-4 -55,-12 -17,-8 -32,-17 -45,-30 -12,-12 -23,-25 -31,-41 -8,-16 -12,-32 -12,-49zm12 9c0,8 2,14 6,19 9,10 30,21 62,33 33,13 62,19 88,19 7,0 12,-2 16,-6 4,-4 6,-9 6,-14 0,-6 -1,-10 -5,-15 -5,-6 -16,-13 -34,-22 -17,-10 -37,-17 -58,-23 -21,-5 -41,-8 -58,-8 -8,0 -13,1 -17,5 -4,3 -6,8 -6,12zm-12 -193l119 38c-58,-26 -93,-45 -107,-58 -8,-7 -12,-15 -12,-24 0,-5 3,-10 7,-14 4,-3 10,-5 18,-5 14,0 25,3 34,10 6,4 9,8 9,14 0,5 -2,9 -7,12 -6,3 -9,5 -10,6 -1,1 -1,2 -1,3 0,2 0,3 1,5 2,3 6,7 13,11 6,5 17,11 33,18 15,8 28,13 39,17 10,4 31,10 60,19l0 51 -140 -40c-10,-3 -17,-4 -20,-4 -4,0 -7,1 -9,3 -2,1 -4,4 -5,6 -1,3 -1,9 -1,18l-6 -1 -15 -71 0 -14zm-97 -198l199 57 -44 -47 -14 -16c-5,-4 -9,-8 -12,-9 -2,-2 -4,-2 -6,-2 -3,0 -5,1 -7,4 -2,3 -4,9 -4,20l-9 -2 0 -86 9 2c2,10 5,18 8,25 2,5 6,11 12,18 8,11 14,18 19,23l8 9 57 -13c22,-5 35,-8 39,-11 2,-1 3,-3 3,-5 0,-5 -6,-11 -19,-18 -1,-1 -4,-2 -6,-4l5 -7c20,10 36,22 47,35 7,9 11,17 11,24 0,7 -3,13 -8,18 -5,5 -18,10 -40,14l-48 11 20 23 73 21 0 54 -238 -70c-10,-3 -17,-4 -21,-4 -3,0 -5,1 -7,2 -2,1 -4,3 -5,5 -1,2 -1,6 -1,12l-8 -2 -13 -69 0 -12zm362 -68l-9 5c-12,-22 -21,-35 -27,-40 -5,-4 -10,-6 -15,-6 -6,0 -12,3 -18,10 -7,8 -13,13 -17,15 -4,2 -8,3 -14,3 -9,0 -17,-4 -23,-11 -7,-6 -10,-15 -10,-24 0,-10 3,-18 11,-25 7,-7 17,-10 28,-10 17,0 35,6 52,20 17,13 31,34 42,63zm-355 -373l0 -97 7 2c1,11 4,20 8,26 7,10 19,17 36,22l131 37c41,12 70,28 86,48 16,20 24,46 24,77 0,17 -2,33 -7,46 -5,14 -11,23 -17,30 -7,6 -14,11 -24,14 -9,4 -17,5 -23,5 -10,0 -25,-3 -44,-8l-126 -36c-12,-3 -20,-5 -25,-5 -6,0 -10,2 -13,6 -3,4 -5,13 -6,28l-7 -2 0 -143 7 3c0,14 3,24 9,31 6,8 18,14 35,19l125 36c21,6 38,9 51,9 11,0 22,-5 30,-14 9,-9 13,-22 13,-39 0,-15 -3,-27 -8,-38 -6,-10 -14,-19 -24,-26 -13,-9 -32,-17 -57,-25l-130 -37c-8,-2 -14,-3 -19,-3 -9,0 -15,3 -20,9 -3,5 -5,14 -5,27l-7 -2zm-7 -328l97 24 0 7c-15,1 -27,4 -36,8 -13,6 -24,14 -31,23 -7,10 -11,21 -11,32 0,11 4,21 13,29 8,8 18,12 28,12 11,0 21,-3 31,-8 10,-6 25,-19 46,-41 16,-17 30,-28 41,-34 12,-6 25,-9 38,-9 16,0 30,4 43,12 13,8 23,20 30,36 7,15 10,33 10,53 0,12 -1,27 -5,45 -4,18 -5,31 -5,37 0,4 0,9 2,13 1,3 4,8 8,14l0 8 -108 -26 0 -8c19,-2 35,-5 48,-11 14,-6 24,-15 32,-26 7,-11 11,-23 11,-37 0,-14 -5,-26 -14,-35 -9,-9 -20,-14 -32,-14 -11,0 -21,2 -31,8 -9,5 -23,17 -42,36 -19,19 -35,32 -50,39 -11,6 -22,8 -34,8 -22,0 -40,-8 -55,-25 -16,-17 -24,-39 -24,-66 0,-12 3,-28 8,-48 4,-12 5,-20 5,-25 0,-4 -1,-8 -2,-11 -2,-3 -5,-7 -11,-11l0 -9zm201 -179l0 88 22 19 24 20c5,4 10,7 14,9 3,1 7,2 10,2 3,0 7,-2 10,-6 3,-3 4,-9 5,-18l7 0 0 86 -7 -2c-2,-8 -4,-15 -9,-20 -5,-8 -17,-20 -35,-34l-242 -203 0 -10 234 10c13,0 20,0 23,0 9,0 16,-2 21,-5 4,-4 7,-11 8,-19l7 2 0 123 -7 -2c-2,-12 -3,-19 -3,-21 -2,-4 -7,-8 -13,-11 -6,-3 -17,-5 -33,-6l-36 -2zm-18 0l-93 -5 93 79 0 -74zm-48 -176l-9 4c-11,-20 -20,-33 -28,-39 -5,-5 -10,-7 -16,-7 -5,0 -11,4 -18,12 -10,11 -19,16 -29,16 -9,0 -17,-3 -24,-10 -7,-7 -11,-15 -11,-24 0,-10 4,-18 12,-25 7,-8 17,-11 28,-11 17,0 33,6 48,18 19,15 35,37 47,66zm0 -94l-9 5c-10,-20 -19,-33 -27,-40 -6,-4 -11,-7 -16,-7 -5,0 -11,4 -18,11 -6,7 -12,12 -17,15 -4,2 -8,3 -12,3 -10,0 -18,-4 -25,-11 -6,-6 -10,-15 -10,-24 0,-10 4,-19 11,-25 7,-7 17,-10 28,-10 17,0 33,5 47,16 18,14 34,36 48,67zm158 -651l0 152 -8 0c-36,-40 -70,-73 -101,-100 -25,-23 -44,-37 -58,-43 -13,-6 -27,-9 -41,-9 -12,0 -23,4 -31,12 -8,8 -12,18 -12,30 0,20 11,37 33,51l-4 7c-21,-7 -37,-16 -48,-28 -14,-16 -22,-35 -22,-57 0,-20 6,-37 19,-50 13,-14 27,-20 43,-20 15,0 29,3 43,10 14,6 32,19 54,40 16,15 44,46 85,94l0 -56c0,-17 -2,-29 -6,-37 -4,-7 -13,-13 -25,-19l0 -10 79 33zm-292 -215c0,-14 4,-26 12,-35 8,-10 19,-17 32,-21 13,-5 26,-7 39,-7 22,0 46,3 69,9 24,6 46,14 66,24 20,11 37,22 50,35 8,8 16,18 21,29 6,12 9,23 9,35 0,11 -3,21 -10,31 -7,9 -17,16 -30,21 -13,5 -26,8 -41,8 -32,0 -65,-6 -97,-18 -27,-9 -51,-22 -70,-36 -20,-14 -33,-28 -40,-39 -6,-12 -10,-24 -10,-36zm14 -2c0,4 1,8 3,11 1,3 5,7 10,10 5,4 15,8 31,14 29,10 65,21 107,33 33,9 54,15 63,16 13,3 24,4 34,4 7,0 12,-1 16,-5 4,-4 6,-8 6,-14 0,-6 -1,-10 -4,-14 -7,-8 -17,-14 -33,-19 -35,-11 -83,-26 -145,-43 -27,-8 -49,-12 -65,-12 -7,0 -12,2 -16,6 -5,3 -7,8 -7,13zm278 -215l0 152 -8 0c-36,-40 -70,-73 -101,-100 -25,-23 -44,-37 -58,-43 -13,-6 -27,-9 -41,-9 -12,0 -23,5 -31,13 -8,8 -12,18 -12,30 0,19 11,36 33,50l-4 8c-21,-8 -37,-17 -48,-29 -14,-16 -22,-35 -22,-57 0,-20 6,-37 19,-50 13,-13 27,-20 43,-20 15,0 29,3 43,10 14,6 32,20 54,40 16,15 44,47 85,94l0 -55c0,-18 -2,-30 -6,-37 -4,-7 -13,-14 -25,-20l0 -10 79 33zm-292 -256l240 71c13,4 21,6 24,6 4,0 7,-2 11,-4 3,-3 6,-6 7,-9 1,-3 2,-12 3,-27l7 2 0 145 -7 -3c-1,-14 -2,-24 -4,-30 -2,-5 -6,-10 -10,-13 -5,-4 -15,-8 -31,-13l-142 -42c-22,-6 -33,-10 -35,-10 -3,-1 -7,-1 -10,-1 -6,0 -12,2 -15,6 -4,4 -6,9 -6,16 0,4 1,11 2,21l-8 2 -26 -108 0 -9z"/>
   <path class="fil0" d="M2674 9191c0,-68 55,-123 123,-123 68,0 123,55 123,123 0,68 -55,123 -123,123 -68,0 -123,-55 -123,-123zm15 0c0,-60 48,-108 108,-108 60,0 109,48 109,108 0,60 -49,109 -109,109 -60,0 -108,-49 -108,-109zm130 -44l4 -27c19,3 33,11 44,23 10,12 16,27 16,45 0,23 -8,40 -22,54 -15,14 -36,20 -63,20 -18,0 -33,-2 -46,-8 -14,-6 -23,-15 -30,-27 -7,-12 -10,-25 -10,-39 0,-18 4,-32 13,-44 9,-11 22,-18 39,-21l4 27c-11,2 -19,7 -25,13 -5,7 -8,15 -8,24 0,14 5,25 15,34 10,9 26,13 47,13 22,0 38,-4 48,-13 10,-8 15,-19 15,-32 0,-11 -3,-21 -10,-28 -7,-7 -17,-12 -31,-14z"/>
   <path class="fil3" d="M3158 5280l14297 0 0 3887 -14297 0 0 -3887zm4848 1283l-388 0 -94 805c-22,186 -208,361 -398,361 -137,0 -204,-91 -189,-221l111 -945 -390 0 -102 875c-43,371 225,674 596,674l0 0c371,0 709,-303 753,-674l101 -875zm-2739 710l0 0 0 3c7,147 29,247 68,299 63,85 179,127 348,127 141,0 243,-29 306,-87 62,-58 93,-128 93,-211 0,-71 -26,-131 -77,-180 -37,-37 -136,-95 -298,-176 -162,-81 -281,-149 -355,-203 -75,-54 -134,-125 -177,-212 -43,-86 -65,-188 -65,-303 -1,-204 63,-372 190,-506 126,-134 310,-200 552,-200 245,0 435,66 570,198 67,66 119,143 156,230l-344 321 0 0c-11,-115 -48,-203 -109,-265 -62,-61 -154,-91 -274,-91 -119,0 -204,24 -254,72 -51,48 -76,109 -76,182 1,70 24,126 70,171 47,46 150,109 310,189 240,120 393,217 459,291 98,110 147,250 148,423 0,212 -72,394 -218,544 -145,151 -348,226 -608,226 -179,0 -335,-34 -467,-104 -132,-69 -225,-165 -280,-288 -13,-31 -25,-63 -35,-95l-3 -11 370 -344zm2880 -710l388 0 -20 154c78,-69 152,-118 222,-148 70,-30 147,-44 230,-44 159,0 291,55 395,164 104,110 164,274 179,491 19,273 -48,505 -203,694 -132,161 -296,241 -492,241 -201,0 -359,-80 -474,-242l-127 950 -408 0 310 -2260zm306 869c8,119 43,212 106,278 63,66 133,99 212,99 68,0 132,-25 192,-74 60,-50 107,-131 140,-246 34,-114 47,-221 41,-319 -8,-114 -42,-201 -101,-262 -59,-61 -130,-91 -214,-91 -79,0 -149,27 -210,83 -60,56 -105,139 -133,247 -28,108 -39,203 -33,285zm1266 -869l384 0 -38 285c126,-216 271,-323 436,-323 58,0 122,14 191,44l-134 335c-38,-13 -79,-20 -120,-20 -71,0 -141,26 -210,80 -69,54 -121,125 -156,214 -35,89 -65,231 -92,424l-65 475 -408 0 212 -1514zm2173 884l-1028 0c1,16 1,29 2,37 7,102 42,184 104,246 62,62 135,94 218,94 138,0 240,-70 307,-211l369 62c-61,147 -149,256 -264,330 -114,73 -245,110 -394,110 -204,0 -374,-64 -511,-193 -137,-130 -212,-300 -227,-513 -14,-208 30,-393 134,-555 141,-220 358,-329 649,-329 185,0 337,57 454,172 117,115 183,276 197,483 7,99 4,188 -10,267zm-362 -248c0,-18 -1,-32 -1,-42 -8,-113 -39,-198 -94,-255 -54,-57 -123,-85 -209,-85 -84,0 -158,32 -220,96 -63,65 -102,160 -117,286l641 0zm551 -636l387 0 -22 181c140,-146 293,-219 458,-219 115,0 204,24 269,71 66,48 110,113 133,197 47,-76 118,-140 212,-191 95,-51 195,-77 300,-77 121,0 218,33 290,99 72,65 112,152 120,260 3,52 -5,142 -25,270l-133 923 -409 0 132 -923c17,-115 25,-182 25,-197 -3,-44 -18,-78 -45,-103 -27,-25 -67,-37 -118,-37 -102,0 -191,54 -264,162 -53,77 -94,215 -122,412l-95 686 -409 0 128 -917c14,-106 20,-175 18,-206 -3,-40 -18,-73 -47,-99 -29,-26 -67,-38 -115,-38 -45,0 -90,13 -135,40 -46,27 -85,63 -118,110 -32,47 -59,107 -80,181 -9,34 -23,112 -42,233l-96 696 -409 0 212 -1514zm3621 884l-1028 0c1,16 1,29 1,37 8,102 42,184 105,246 62,62 135,94 218,94 137,0 240,-70 307,-211l369 62c-62,147 -149,256 -264,330 -114,73 -246,110 -394,110 -204,0 -375,-64 -511,-193 -137,-130 -213,-300 -227,-513 -15,-208 30,-393 134,-555 141,-220 358,-329 649,-329 185,0 336,57 454,172 117,115 183,276 197,483 7,99 4,188 -10,267zm-362 -248c0,-18 -1,-32 -1,-42 -8,-113 -40,-198 -94,-255 -54,-57 -124,-85 -209,-85 -84,0 -158,32 -221,96 -62,65 -101,160 -116,286l641 0z"/>
  </g>
 </g>
</svg>
